<?xml version="1.0" encoding="UTF-8"?>
<svg xmlns="http://www.w3.org/2000/svg" width="1200" height="630" viewBox="0 0 1200 630">
  <defs>
    <linearGradient id="bg" x1="0%" y1="0%" x2="100%" y2="100%">
      <stop offset="0%" stop-color="#0b0b14"/>
      <stop offset="50%" stop-color="#15152a"/>
      <stop offset="100%" stop-color="#1a0f2e"/>
    </linearGradient>
    <radialGradient id="glow" cx="50%" cy="50%" r="50%">
      <stop offset="0%" stop-color="#6366f1" stop-opacity="0.35"/>
      <stop offset="60%" stop-color="#8b5cf6" stop-opacity="0.10"/>
      <stop offset="100%" stop-color="#000000" stop-opacity="0"/>
    </radialGradient>
    <linearGradient id="mc" x1="0%" y1="0%" x2="100%" y2="100%">
      <stop offset="0%" stop-color="#6366f1"/>
      <stop offset="55%" stop-color="#8b5cf6"/>
      <stop offset="100%" stop-color="#a855f7"/>
    </linearGradient>
    <linearGradient id="shine" x1="0%" y1="0%" x2="0%" y2="100%">
      <stop offset="0%" stop-color="white" stop-opacity="0.22"/>
      <stop offset="55%" stop-color="white" stop-opacity="0"/>
    </linearGradient>
    <radialGradient id="blob" cx="50%" cy="50%" r="50%">
      <stop offset="0%" stop-color="#6366f1" stop-opacity="0.45"/>
      <stop offset="60%" stop-color="#8b5cf6" stop-opacity="0.15"/>
      <stop offset="100%" stop-color="#6366f1" stop-opacity="0"/>
    </radialGradient>
  </defs>
  <rect width="1200" height="630" fill="url(#bg)"/>
  <ellipse cx="600" cy="320" rx="500" ry="280" fill="url(#glow)"/>
  <g opacity="0.18">
    <circle cx="120" cy="80" r="2" fill="#a78bfa"/>
    <circle cx="180" cy="150" r="1.5" fill="#6366f1"/>
    <circle cx="1050" cy="120" r="2" fill="#a78bfa"/>
    <circle cx="1100" cy="200" r="1.5" fill="#8b5cf6"/>
    <circle cx="80" cy="500" r="2" fill="#a78bfa"/>
    <circle cx="150" cy="570" r="1.5" fill="#6366f1"/>
    <circle cx="1080" cy="510" r="2" fill="#8b5cf6"/>
    <circle cx="1130" cy="580" r="1.5" fill="#a78bfa"/>
    <circle cx="300" cy="100" r="1" fill="#a78bfa"/>
    <circle cx="900" cy="80" r="1" fill="#6366f1"/>
    <circle cx="220" cy="380" r="1" fill="#8b5cf6"/>
    <circle cx="980" cy="350" r="1" fill="#a78bfa"/>
  </g>
  <g transform="translate(600, 290)">
    <circle cx="0" cy="0" r="280" fill="url(#blob)"/>
    <g transform="translate(-100, -110)">
      <rect x="0" y="0" width="200" height="60" rx="30" fill="url(#mc)"/>
      <rect x="0" y="0" width="200" height="30" rx="30" fill="url(#shine)"/>
      <!-- mc·定制 居中布局：总宽约 94px，居中需左边距 53 -->
      <g transform="translate(53, 0)">
        <text x="0" y="42" font-family="-apple-system, BlinkMacSystemFont, Segoe UI, system-ui, sans-serif" font-size="30" font-weight="800" fill="white" letter-spacing="-1.2" font-style="italic">mc</text>
        <circle cx="40" cy="30" r="2.5" fill="white" opacity="0.5"/>
        <text x="50" y="39" font-family="PingFang SC, Microsoft YaHei, system-ui, sans-serif" font-size="22" font-weight="500" fill="white" fill-opacity="0.96" letter-spacing="1">定制</text>
      </g>
    </g>
    <text x="0" y="20" text-anchor="middle" font-family="PingFang SC, Microsoft YaHei, system-ui, sans-serif" font-size="76" font-weight="700" fill="white" letter-spacing="2">平板电子相册</text>
    <text x="0" y="80" text-anchor="middle" font-family="PingFang SC, Microsoft YaHei, system-ui, sans-serif" font-size="26" font-weight="400" fill="rgba(255,255,255,0.7)" letter-spacing="1.5">把闲置设备改造成电子相框</text>
    <g transform="translate(-260, 140)" font-family="PingFang SC, system-ui, sans-serif" font-size="18" font-weight="500">
      <g>
        <rect x="0" y="0" width="100" height="34" rx="17" fill="rgba(99,102,241,0.18)" stroke="rgba(99,102,241,0.4)" stroke-width="1"/>
        <text x="50" y="23" text-anchor="middle" fill="#c4b5fd">单文件</text>
      </g>
      <g transform="translate(110, 0)">
        <rect x="0" y="0" width="120" height="34" rx="17" fill="rgba(99,102,241,0.18)" stroke="rgba(99,102,241,0.4)" stroke-width="1"/>
        <text x="60" y="23" text-anchor="middle" fill="#c4b5fd">零依赖</text>
      </g>
      <g transform="translate(240, 0)">
        <rect x="0" y="0" width="120" height="34" rx="17" fill="rgba(99,102,241,0.18)" stroke="rgba(99,102,241,0.4)" stroke-width="1"/>
        <text x="60" y="23" text-anchor="middle" fill="#c4b5fd">本地运行</text>
      </g>
      <g transform="translate(370, 0)">
        <rect x="0" y="0" width="110" height="34" rx="17" fill="rgba(99,102,241,0.18)" stroke="rgba(99,102,241,0.4)" stroke-width="1"/>
        <text x="55" y="23" text-anchor="middle" fill="#c4b5fd">PWA</text>
      </g>
      <g transform="translate(490, 0)">
        <rect x="0" y="0" width="120" height="34" rx="17" fill="rgba(99,102,241,0.18)" stroke="rgba(99,102,241,0.4)" stroke-width="1"/>
        <text x="60" y="23" text-anchor="middle" fill="#c4b5fd">MIT 许可</text>
      </g>
    </g>
  </g>
  <text x="600" y="580" text-anchor="middle" font-family="ui-monospace, Menlo, Consolas, monospace" font-size="18" font-weight="500" fill="rgba(255,255,255,0.45)" letter-spacing="0.5">crashmmm.github.io/album</text>
</svg>
